<?xml version="1.0" standalone="no"?><!DOCTYPE svg PUBLIC "-//W3C//DTD SVG 1.1//EN" "http://www.w3.org/Graphics/SVG/1.1/DTD/svg11.dtd"><svg t="1639229134010" class="icon" viewBox="0 0 1024 1024" version="1.1" xmlns="http://www.w3.org/2000/svg" p-id="4668" xmlns:xlink="http://www.w3.org/1999/xlink" width="28" height="28"><defs><style type="text/css"></style></defs><path d="M830.976 465.8432a42.368 42.368 0 0 0-29.5168-32.384l-10.88-2.432a107.5968 107.5968 0 0 1-73.4464-128.256l3.328-10.1888a44.3648 44.3648 0 0 0-12.1856-43.0592 300.416 300.416 0 0 0-39.2704-25.9584c-13.184-7.68-26.9056-14.4384-41.0624-20.1728a44.3648 44.3648 0 0 0-44.3648 10.6496l-7.552 7.9872a106.9312 106.9312 0 0 1-73.8816 29.2864 107.1616 107.1616 0 0 1-73.216-29.5168l-7.3216-7.7568a44.3648 44.3648 0 0 0-44.3648-10.6496 314.624 314.624 0 0 0-40.3712 20.1728c-13.5424 7.6288-26.4448 16.3072-38.6048 25.9584a44.3648 44.3648 0 0 0-11.5456 43.0592l3.0976 10.1888a107.8272 107.8272 0 0 1-11.52 79.0016 103.168 103.168 0 0 1-61.2352 48.5888l-10.4448 2.432a37.7088 37.7088 0 0 0-28.3904 30.3872c-1.9968 15.3088-2.816 30.72-2.432 46.1568-0.4352 15.7184 0.384 31.4368 2.432 47.0272a42.5984 42.5984 0 0 0 27.52 33.28l10.1888 2.4576a105.6 105.6 0 0 1 61.4656 50.1248c13.8496 23.8848 17.9712 52.1728 11.52 79.0016l-2.2016 9.984a44.3648 44.3648 0 0 0 12.6464 43.0336c11.8784 9.6768 24.4992 18.432 37.7088 26.1888 13.1328 7.9872 26.8544 14.9504 41.0624 20.8384 15.616 4.9152 32.6656 0.8192 44.3648-10.6496l7.0912-7.7568a107.8272 107.8272 0 0 1 148.4288 0l7.1168 7.7568a44.3648 44.3648 0 0 0 44.3648 10.6496 314.8288 314.8288 0 0 0 39.7056-20.8384 289.9712 289.9712 0 0 0 39.0656-25.9584c11.6736-11.008 16.512-27.4688 12.6464-43.0592l-3.1232-10.4192a107.5968 107.5968 0 0 1 74.112-128l10.2144-2.4576a42.368 42.368 0 0 0 29.4912-32.384c1.792-15.3344 2.3808-30.7456 1.792-46.1568a310.6048 310.6048 0 0 0-2.4576-46.1568z m-327.936 203.6736a157.5168 157.5168 0 1 1 0-315.0336 157.5168 157.5168 0 0 1 0 315.0336z" fill="#519259" p-id="4669"></path></svg>