<?xml version="1.0" standalone="no"?><!DOCTYPE svg PUBLIC "-//W3C//DTD SVG 1.1//EN" "http://www.w3.org/Graphics/SVG/1.1/DTD/svg11.dtd"><svg t="1645500498429" class="icon" viewBox="0 0 1024 1024" version="1.1" xmlns="http://www.w3.org/2000/svg" p-id="2403" width="48" height="48" xmlns:xlink="http://www.w3.org/1999/xlink"><defs><style type="text/css"></style></defs><path d="M487.232 238.08H405.632v340.48h81.6c59.392 0 102.912-13.824 130.304-41.024 26.688-27.904 40.064-70.912 40.064-129.152 0-59.712-13.376-103.36-40.064-129.92-27.392-27.136-70.912-40.32-130.304-40.32zM778.88 61.248H245.312C185.6 61.248 136.896 109.952 136.896 169.6v689.408c0 59.648 48.704 108.416 108.416 108.416h533.568a108.8 108.8 0 0 0 97.28-60.8H252.608a40.704 40.704 0 0 1-40.576-40.64v-51.2c0-22.336 18.176-40.64 40.576-40.64H740.48a147.2 147.2 0 0 0 146.88-146.88V169.664A108.8 108.8 0 0 0 778.88 61.248zM677.696 581.312c-40.064 42.368-98.24 63.616-175.744 63.616H327.488V171.776h174.464c77.504 0 135.68 21.312 175.744 63.68 38.016 39.68 57.536 97.28 57.536 172.928 0 74.88-19.456 132.544-57.536 172.928z" p-id="2404" fill="#ffffff"></path></svg>