<?xml version="1.0" standalone="no"?>
<!DOCTYPE svg PUBLIC "-//W3C//DTD SVG 20010904//EN" "http://www.w3.org/TR/2001/REC-SVG-20010904/DTD/svg10.dtd">
<!-- Created using Krita: https://krita.org -->
<svg xmlns="http://www.w3.org/2000/svg" 
    xmlns:xlink="http://www.w3.org/1999/xlink"
    xmlns:krita="http://krita.org/namespaces/svg/krita"
    xmlns:sodipodi="http://sodipodi.sourceforge.net/DTD/sodipodi-0.dtd"
    width="0.02304pt"
    height="0.02304pt"
    viewBox="0 0 0.02304 0.02304">
<defs/>
<path id="shape0" transform="matrix(0.00144 0 0 0.00144 0.00144 0.00144)" fill="#e9541d" stroke-opacity="0" stroke="#000000" stroke-width="0" stroke-linecap="square" stroke-linejoin="bevel" d="M7 0C3.134 0 0 3.134 0 7C0 10.866 3.134 14 7 14C10.866 14 14 10.866 14 7C14 3.134 9.57733 0 7 0ZM3.60937 2.96875C4.07265 2.46558 10.0703 2.53906 10.4531 2.98437C10.8359 3.42969 10.7731 4.60555 10.4219 5C10.0706 5.39445 8.67702 5.20563 8.01562 5.04687C7.35423 4.88812 8.72446 10.8191 8.54688 11.0625C8.2805 11.4275 5.98698 11.474 5.60937 11C5.23177 10.526 6.51104 4.88496 5.95312 5.03125C5.39521 5.17754 3.73159 5.26393 3.51562 5C3.19168 4.60411 3.14609 3.47192 3.60937 2.96875Z" sodipodi:nodetypes="cccccczzzzzzzz"/>
</svg>
