<?xml version="1.0" standalone="no"?>
<!DOCTYPE svg PUBLIC "-//W3C//DTD SVG 20010904//EN" "http://www.w3.org/TR/2001/REC-SVG-20010904/DTD/svg10.dtd">
<!-- Created using Krita: https://krita.org -->
<svg xmlns="http://www.w3.org/2000/svg"
    xmlns:xlink="http://www.w3.org/1999/xlink"
    xmlns:krita="http://krita.org/namespaces/svg/krita"
    xmlns:sodipodi="http://sodipodi.sourceforge.net/DTD/sodipodi-0.dtd"
    width="2.304pt"
    height="2.304pt"
    viewBox="0 0 2.304 2.304">
<defs/>
<circle id="shape0" transform="matrix(0.144 0 0 0.144 0 0)" r="8" cx="8" cy="8" fill="#e9541d" stroke-opacity="0" stroke="#000000" stroke-width="0" stroke-linecap="square" stroke-linejoin="bevel"/><path id="shape1" transform="matrix(0.144 0 0 0.144 0.55032751384171 0.528637954677578)" fill="#ffffff" stroke-opacity="0" stroke="#000000" stroke-width="0" stroke-linecap="square" stroke-linejoin="bevel" d="M0.177854 0.394767C-0.0678141 0.635435 -0.0576023 2.06893 0.199951 2.33931C0.567129 2.74152 2.86289 2.2055 3.16096 2.3835C3.34363 3.01084 2.09889 8.36811 2.74112 8.37182C2.83274 8.37951 3.49815 8.64747 4.17828 8.63698C4.88372 8.6261 5.60508 8.33644 5.72422 8.32762C6.29879 8.31301 5.05184 3.09191 5.21599 2.4056C5.59756 2.25871 7.78286 2.75226 8.1549 2.33931C8.40598 1.98714 8.51786 0.627198 8.22119 0.416864C7.33852 -0.216473 0.626523 -0.0492349 0.177854 0.394767Z" sodipodi:nodetypes="cccccccccc"/>
</svg>
